0
SECTION
2
HEADER
9
$INSUNITS
70
4
9
$ACADVER
1
AC1014
9
$HANDSEED
5
FFFF
0
ENDSEC
0
SECTION
2
TABLES
0
TABLE
2
VPORT
5
8
100
AcDbSymbolTable
0
ENDTAB
0
TABLE
2
LTYPE
5
5
100
AcDbSymbolTable
0
LTYPE
5
14
100
AcDbSymbolTableRecord
100
AcDbLinetypeTableRecord
2
BYBLOCK
70
0
0
LTYPE
5
15
100
AcDbSymbolTableRecord
100
AcDbLinetypeTableRecord
2
BYLAYER
70
0
0
ENDTAB
0
TABLE
2
LAYER
5
2
100
AcDbSymbolTable
70
2
0
LAYER
5
50
100
AcDbSymbolTableRecord
100
AcDbLayerTableRecord
2
0
70
0
6
CONTINUOUS
0
ENDTAB
0
TABLE
2
STYLE
5
3
100
AcDbSymbolTable
70
1
0
STYLE
5
11
100
AcDbSymbolTableRecord
100
AcDbTextStyleTableRecord
2
STANDARD
70
0
0
ENDTAB
0
TABLE
2
VIEW
5
6
100
AcDbSymbolTable
70
0
0
ENDTAB
0
TABLE
2
UCS
5
7
100
AcDbSymbolTable
70
0
0
ENDTAB
0
TABLE
2
APPID
5
9
100
AcDbSymbolTable
70
2
0
APPID
5
12
100
AcDbSymbolTableRecord
100
AcDbRegAppTableRecord
2
ACAD
70
0
0
ENDTAB
0
TABLE
2
DIMSTYLE
5
A
100
AcDbSymbolTable
70
1
0
ENDTAB
0
TABLE
2
BLOCK_RECORD
5
1
100
AcDbSymbolTable
70
1
0
BLOCK_RECORD
5
1F
100
AcDbSymbolTableRecord
100
AcDbBlockTableRecord
2
*MODEL_SPACE
0
BLOCK_RECORD
5
1B
100
AcDbSymbolTableRecord
100
AcDbBlockTableRecord
2
*PAPER_SPACE
0
ENDTAB
0
ENDSEC
0
SECTION
2
BLOCKS
0
BLOCK
5
20
100
AcDbEntity
100
AcDbBlockBegin
2
*MODEL_SPACE
0
ENDBLK
5
21
100
AcDbEntity
100
AcDbBlockEnd
0
BLOCK
5
1C
100
AcDbEntity
100
AcDbBlockBegin
2
*PAPER_SPACE
0
ENDBLK
5
1D
100
AcDbEntity
100
AcDbBlockEnd
0
ENDSEC
0
SECTION
2
ENTITIES
0
SPLINE
5
100
100
AcDbEntity
8
0
100
AcDbSpline
70
1064
71
5
72
41
73
35
74
0
42
0.000000001
43
0.0000000001
44
0.0000000001
40
0
40
0
40
0
40
0
40
0
40
0
40
0.033333333333333333
40
0.066666666666666666
40
0.10000000000000001
40
0.13333333333333333
40
0.16666666666666666
40
0.19999999999999998
40
0.23333333333333331
40
0.26666666666666666
40
0.29999999999999999
40
0.33333333333333331
40
0.36666666666666664
40
0.39999999999999997
40
0.43333333333333329
40
0.46666666666666662
40
0.49999999999999994
40
0.53333333333333333
40
0.56666666666666665
40
0.59999999999999998
40
0.6333333333333333
40
0.66666666666666663
40
0.69999999999999996
40
0.73333333333333328
40
0.76666666666666661
40
0.79999999999999993
40
0.83333333333333326
40
0.86666666666666659
40
0.89999999999999991
40
0.93333333333333324
40
0.96666666666666656
40
1
40
1
40
1
40
1
40
1
40
1
10
-19.784536352916525
20
-33.942328622363512
30
0
10
-20.330873583595476
20
-33.937820820377127
30
0
10
-21.417126801050475
20
-33.978470142982708
30
0
10
-23.027398047096437
20
-34.188573895216649
30
0
10
-25.134794742920334
20
-34.766341411954286
30
0
10
-27.686350196107064
20
-35.970956710032056
30
0
10
-30.0808334420576
20
-37.589654907175934
30
0
10
-32.214005359893527
20
-39.519848886171602
30
0
10
-33.809861776750758
20
-41.497019826354105
30
0
10
-34.880145546803206
20
-43.494414359690055
30
0
10
-35.677678974144072
20
-45.621167554641779
30
0
10
-36.54456745155786
20
-47.927110623633823
30
0
10
-37.798687580206384
20
-50.251536466637958
30
0
10
-39.626282533364062
20
-52.050018893101033
30
0
10
-41.990601512254678
20
-52.746935051868029
30
0
10
-44.663888810315228
20
-51.920890369325008
30
0
10
-46.945824552124506
20
-49.842860090880919
30
0
10
-48.341447008229714
20
-46.971635637710165
30
0
10
-48.766351129605923
20
-43.609125522994113
30
0
10
-48.322639761833493
20
-40.035299736391451
30
0
10
-47.249399319999192
20
-36.449249468393752
30
0
10
-45.802874136712155
20
-32.993171173606527
30
0
10
-44.159425666464358
20
-29.739054302977991
30
0
10
-42.419056398134948
20
-26.706489652745759
30
0
10
-40.626952930131438
20
-23.875314697135771
30
0
10
-38.787717614542004
20
-21.200208141958559
30
0
10
-36.882423229301949
20
-18.624208712174372
30
0
10
-34.884133672423935
20
-16.092435872533109
30
0
10
-32.774300737969796
20
-13.565964452292302
30
0
10
-30.541314469928608
20
-11.019236669706574
30
0
10
-28.178834627049913
20
-8.4371588813906246
30
0
10
-26.183178201913883
20
-6.3373538761218988
30
0
10
-24.6268238599597
20
-4.7422702552138656
30
0
10
-23.56280811339165
20
-3.6699065744845423
30
0
10
-23.024188684844603
20
-3.1314810733237253
30
0
0
SPLINE
5
101
100
AcDbEntity
8
0
100
AcDbSpline
70
1064
71
5
72
41
73
35
74
0
42
0.000000001
43
0.0000000001
44
0.0000000001
40
0
40
0
40
0
40
0
40
0
40
0
40
0.033333333333333333
40
0.066666666666666666
40
0.10000000000000001
40
0.13333333333333333
40
0.16666666666666666
40
0.19999999999999998
40
0.23333333333333331
40
0.26666666666666666
40
0.29999999999999999
40
0.33333333333333331
40
0.36666666666666664
40
0.39999999999999997
40
0.43333333333333329
40
0.46666666666666662
40
0.49999999999999994
40
0.53333333333333333
40
0.56666666666666665
40
0.59999999999999998
40
0.6333333333333333
40
0.66666666666666663
40
0.69999999999999996
40
0.73333333333333328
40
0.76666666666666661
40
0.79999999999999993
40
0.83333333333333326
40
0.86666666666666659
40
0.89999999999999991
40
0.93333333333333324
40
0.96666666666666656
40
1
40
1
40
1
40
1
40
1
40
1
10
22.708061358252813
20
-3.1314810733237253
30
0
10
23.246096847645145
20
-3.3386788620895125
30
0
10
24.308136022791366
20
-3.7385046428362738
30
0
10
25.859099499747629
20
-4.2945346754319917
30
0
10
27.842706658042275
20
-4.9483260655323766
30
0
10
30.183423141134575
20
-5.6135045399881403
30
0
10
32.392231617736876
20
-6.1098067896249812
30
0
10
34.484158618188793
20
-6.404955260095897
30
0
10
36.485363012794345
20
-6.445656347082358
30
0
10
38.436457767424216
20
-6.1537385488020258
30
0
10
40.381209951193789
20
-5.4832707159974889
30
0
10
42.356905049808375
20
-4.4861896777875083
30
0
10
44.380943820734345
20
-3.3587181517252089
30
0
10
46.446279119381337
20
-2.5384351283528517
30
0
10
48.482146171213998
20
-2.5241833161683367
30
0
10
50.337269864144901
20
-3.6652767314621331
30
0
10
51.697149430106315
20
-5.8747729707316481
30
0
10
52.157115844280433
20
-8.5592187888078897
30
0
10
51.66881393601669
20
-11.429259531022566
30
0
10
50.33037743651289
20
-14.255109248188905
30
0
10
48.367304747365779
20
-16.925429964740605
30
0
10
46.038704441581956
20
-19.38315986726198
30
0
10
43.570231551113537
20
-21.613167543960298
30
0
10
41.093683143781405
20
-23.612571870862137
30
0
10
38.675683916299754
20
-25.391992095707966
30
0
10
36.330618888254868
20
-26.969511020879317
30
0
10
34.039640928095039
20
-28.367714219943064
30
0
10
31.766228888212865
20
-29.609632010709774
30
0
10
29.474336509041766
20
-30.714884925314937
30
0
10
27.14140696469391
20
-31.696752801531591
30
0
10
24.753881093610183
20
-32.563779405248837
30
0
10
22.79509938345943
20
-33.169269912343722
30
0
10
21.297713144101607
20
-33.57469988551604
30
0
10
20.28690353506812
20
-33.823385802604932
30
0
10
19.778360534263044
20
-33.942328622363519
30
0
0
SPLINE
5
102
100
AcDbEntity
8
0
100
AcDbSpline
70
1064
71
5
72
31
73
25
74
0
42
0.000000001
43
0.0000000001
44
0.0000000001
40
0
40
0
40
0
40
0
40
0
40
0
40
0.050000000000000003
40
0.10000000000000001
40
0.15000000000000002
40
0.20000000000000001
40
0.25
40
0.29999999999999999
40
0.34999999999999998
40
0.39999999999999997
40
0.44999999999999996
40
0.49999999999999994
40
0.54999999999999993
40
0.59999999999999998
40
0.65000000000000002
40
0.70000000000000007
40
0.75000000000000011
40
0.80000000000000016
40
0.8500000000000002
40
0.90000000000000024
40
0.95000000000000029
40
1
40
1
40
1
40
1
40
1
40
1
10
-22.758672774154753
20
20.343719768315488
30
0
10
-23.494700472700217
20
20.546812480657749
30
0
10
-24.937122199623467
20
20.899464024329035
30
0
10
-27.011872144241419
20
21.267865773700162
30
0
10
-29.599555235991875
20
21.436379022607778
30
0
10
-32.538645148528026
20
21.136321158159802
30
0
10
-35.193534392563414
20
20.416655522017155
30
0
10
-37.598088357358719
20
19.478695054030865
30
0
10
-39.803833148107515
20
18.655102721588477
30
0
10
-41.920313090881685
20
18.497537590648868
30
0
10
-43.939218735675347
20
19.469717681412828
30
0
10
-45.711934737499234
20
21.797891513664528
30
0
10
-46.519661633430246
20
24.860400349974423
30
0
10
-45.890995444501726
20
27.993340574788391
30
0
10
-43.870520494491025
20
30.898607476434353
30
0
10
-40.728277878842896
20
33.399648021993713
30
0
10
-36.898547227584693
20
35.462732221381351
30
0
10
-32.833324571313433
20
37.110266106556146
30
0
10
-28.873273606321813
20
38.375100231801973
30
0
10
-25.228992187881683
20
39.279293033051175
30
0
10
-22.023224602345827
20
39.841126078731001
30
0
10
-19.853233020306288
20
40.026078581336094
30
0
10
-18.454186930560756
20
40.019076977348327
30
0
10
-17.622583401549111
20
39.949898367338939
30
0
10
-17.232056580554531
20
39.899182000928221
30
0
0
SPLINE
5
103
100
AcDbEntity
8
0
100
AcDbSpline
70
1064
71
5
72
46
73
40
74
0
42
0.000000001
43
0.0000000001
44
0.0000000001
40
0
40
0
40
0
40
0
40
0
40
0
40
0.028571428571428571
40
0.057142857142857141
40
0.085714285714285715
40
0.11428571428571428
40
0.14285714285714285
40
0.17142857142857143
40
0.20000000000000001
40
0.22857142857142859
40
0.25714285714285717
40
0.28571428571428575
40
0.31428571428571433
40
0.34285714285714292
40
0.3714285714285715
40
0.40000000000000008
40
0.42857142857142866
40
0.45714285714285724
40
0.48571428571428582
40
0.51428571428571435
40
0.54285714285714293
40
0.57142857142857151
40
0.60000000000000009
40
0.62857142857142867
40
0.65714285714285725
40
0.68571428571428583
40
0.71428571428571441
40
0.74285714285714299
40
0.77142857142857157
40
0.80000000000000016
40
0.82857142857142874
40
0.85714285714285732
40
0.8857142857142859
40
0.91428571428571448
40
0.94285714285714306
40
0.97142857142857164
40
1
40
1
40
1
40
1
40
1
40
1
10
-8.4954233344801704
20
46.810595871894016
30
0
10
-8.5828870958952894
20
47.417430779186859
30
0
10
-8.7348693927597285
20
48.639187191813981
30
0
10
-8.8940065695757102
20
50.496078653150818
30
0
10
-8.9683389775736853
20
53.020537817687696
30
0
10
-8.8301207724202246
20
56.25099689902634
30
0
10
-8.4585650532866179
20
59.537775951677432
30
0
10
-7.8504979352052562
20
62.842336782263253
30
0
10
-7.0022692047431621
20
66.101612579914956
30
0
10
-5.9087538389977743
20
69.21598730487932
30
0
10
-4.5675860705085842
20
72.062761917233274
30
0
10
-2.9888359318132989
20
74.53730257797686
30
0
10
-1.2043836778792907
20
76.590523606024334
30
0
10
0.72466836163612269
20
78.260765534199251
30
0
10
2.6942195841923628
20
79.726343543828634
30
0
10
4.5643595506747463
20
81.288517751575128
30
0
10
6.2020733466423392
20
83.236138343120203
30
0
10
7.5163010847314293
20
85.735974706330168
30
0
10
8.4952768294916119
20
88.715209052091694
30
0
10
9.2460825747677973
20
91.73767082480876
30
0
10
9.9300699618298403
20
94.187911397509737
30
0
10
10.691017144957186
20
95.475366210165035
30
0
10
11.591926915918016
20
95.21629701371333
30
0
10
12.532613232712293
20
93.463674278740996
30
0
10
13.30711153883146
20
90.593051568821522
30
0
10
13.69160433746446
20
87.11534167828178
30
0
10
13.517175927649081
20
83.523964940965612
30
0
10
12.760432454175747
20
80.107397253249871
30
0
10
11.519576087888957
20
76.970910817184446
30
0
10
9.9723617566544185
20
74.091106840138053
30
0
10
8.340317408896599
20
71.3589581910947
30
0
10
6.8518954047688618
20
68.625750093935892
30
0
10
5.7033116668808326
20
65.750645381604159
30
0
10
5.0290341706488162
20
62.637809593525581
30
0
10
4.9170623233126669
20
59.22379209185911
30
0
10
5.4175294109247529
20
55.472248356707453
30
0
10
6.3264105359986536
20
52.187233709954938
30
0
10
7.296781102986591
20
49.561732873111389
30
0
10
8.0718427148883585
20
47.739606778394375
30
0
10
8.4914103273946839
20
46.810595871894016
30
0
0
SPLINE
5
104
100
AcDbEntity
8
0
100
AcDbSpline
70
1064
71
5
72
31
73
25
74
0
42
0.000000001
43
0.0000000001
44
0.0000000001
40
0
40
0
40
0
40
0
40
0
40
0
40
0.050000000000000003
40
0.10000000000000001
40
0.15000000000000002
40
0.20000000000000001
40
0.25
40
0.29999999999999999
40
0.34999999999999998
40
0.39999999999999997
40
0.44999999999999996
40
0.49999999999999994
40
0.54999999999999993
40
0.59999999999999998
40
0.65000000000000002
40
0.70000000000000007
40
0.75000000000000011
40
0.80000000000000016
40
0.8500000000000002
40
0.90000000000000024
40
0.95000000000000029
40
1
40
1
40
1
40
1
40
1
40
1
10
17.227570902809155
20
39.902870719318528
30
0
10
17.710686576258489
20
40.2320275181509
30
0
10
18.716436377445156
20
40.815197216681291
30
0
10
20.343616327885773
20
41.464519807109319
30
0
10
22.751269337226955
20
41.87758165296912
30
0
10
26.143223162674651
20
41.637504239395525
30
0
10
29.864107931733692
20
40.654473618304223
30
0
10
33.798487235516895
20
38.970416006596295
30
0
10
37.744891117010312
20
36.670493015713575
30
0
10
41.39086534276224
20
33.897271098758637
30
0
10
44.284835279790933
20
30.870237194116438
30
0
10
45.96626609788629
20
27.852847217164502
30
0
10
46.145342298268694
20
25.126072824578873
30
0
10
44.792109023177872
20
22.942986617950361
30
0
10
42.440603972033799
20
21.529513132047001
30
0
10
40.000072581911077
20
20.970385003746657
30
0
10
37.686399254508494
20
21.062072946375455
30
0
10
35.523245725541614
20
21.496461018272846
30
0
10
33.346368369018727
20
21.930595090819345
30
0
10
31.033976624439834
20
22.121860579842412
30
0
10
28.518312223371304
20
21.936032056091111
30
0
10
26.317654517007156
20
21.434472077035636
30
0
10
24.557599952359624
20
20.852276531723955
30
0
10
23.335722420983242
20
20.372914825588772
30
0
10
22.712657391171433
20
20.110428268091365
30
0
0
CIRCLE
5
105
100
AcDbEntity
8
0
100
AcDbCircle
10
0.011130139340589304
20
-60.083259287955819
30
0
40
22
0
SPLINE
5
106
100
AcDbEntity
8
0
100
AcDbSpline
70
1064
71
3
72
52
73
48
74
0
42
0.000000001
43
0.0000000001
44
0.0000000001
40
0
40
0
40
0
40
0
40
0.10378463873236923
40
0.10378463873236923
40
0.20819950873729653
40
0.20819950873729653
40
0.20819950873729653
40
0.27292272221400216
40
0.27292272221400216
40
0.27292272221400216
40
0.29752212379858439
40
0.29752212379858439
40
0.29752212379858439
40
0.47100083633674206
40
0.47100083633674206
40
0.67808149744693713
40
0.67808149744693713
40
0.78878558960046607
40
0.78878558960046607
40
0.78878558960046607
40
0.9285415347527578
40
0.9285415347527578
40
1.0683024740006684
40
1.0683024740006684
40
1.2380238969339474
40
1.2380238969339474
40
1.2380238969339474
40
1.4223965857448184
40
1.4223965857448184
40
1.5716725259158817
40
1.5716725259158817
40
1.5716725259158817
40
1.7782076054884057
40
1.7782076054884057
40
1.9574723381205259
40
1.9574723381205259
40
2.1533060170471527
40
2.1533060170471527
40
2.2512228565104659
40
2.2512228565104659
40
2.3491396959737791
40
2.3491396959737791
40
2.3491396959737791
40
2.4423167640969883
40
2.4423167640969883
40
2.4423167640969883
40
2.6099631174940345
40
2.6099631174940345
40
2.6099631174940345
40
2.6099631174940345
10
11.676524750581681
20
-54.63294729153602
30
0
10
11.378471458859305
20
-54.808574181821442
30
0
10
11.07886594793195
20
-54.981815551727173
30
0
10
10.479599408201475
20
-55.334204227245834
30
0
10
10.180708442900766
20
-55.514440567382636
30
0
10
9.8880057072804934
20
-55.704108807840669
30
0
10
9.7065692735438631
20
-55.821677675343302
30
0
10
9.5272402359105204
20
-55.942427546395344
30
0
10
9.3489278325649359
20
-56.064595605740621
30
0
10
9.2811565001203782
20
-56.111028114128445
30
0
10
9.2136184785757802
20
-56.157795314934027
30
0
10
9.1462299439211225
20
-56.20476999458095
30
0
10
8.6709957724098139
20
-56.536042563103422
30
0
10
8.2019355057029628
20
-56.875816565035684
30
0
10
7.1518509857270285
20
-57.588097405080518
30
0
10
6.5683601599179582
20
-57.956446121345635
30
0
10
5.644924091393829
20
-58.47356168822941
30
0
10
5.3181657980333341
20
-58.644948178610257
30
0
10
4.9850455767953008
20
-58.806787866848666
30
0
10
4.5645052836334497
20
-59.011098820065669
30
0
10
4.1348198760217869
20
-59.200240075242625
30
0
10
3.2585702786559203
20
-59.531044619697894
30
0
10
2.8121049041116826
20
-59.672678524602276
30
0
10
1.809630649474367
20
-59.921230421238711
30
0
10
1.2492388159529058
20
-60.015946344589466
30
0
10
0.68128247943537512
20
-60.059395747562938
30
0
10
0.064297097854666974
20
-60.106595936643259
30
0
10
-0.55803195575618403
20
-60.081723533739087
30
0
10
-1.6613709316322545
20
-59.941910682252569
30
0
10
-2.151337649050459
20
-59.843191009692163
30
0
10
-2.6336493831997121
20
-59.709674936559338
30
0
10
-3.3009658461013993
20
-59.524944880549654
30
0
10
-3.9562108145407571
20
-59.283319375774724
30
0
10
-5.1403720450290402
20
-58.747442748130311
30
0
10
-5.6732230149956511
20
-58.46483966835784
30
0
10
-6.7535671935654893
20
-57.835788278933144
30
0
10
-7.303571785684869
20
-57.484287374115802
30
0
10
-8.1141542524319394
20
-56.934694983214449
30
0
10
-8.3819471412977009
20
-56.747790291004108
30
0
10
-8.9157153002615175
20
-56.371090558966259
30
0
10
-9.1813046597885943
20
-56.18069032225052
30
0
10
-9.4508835838987277
20
-55.996063865115239
30
0
10
-9.7074132463558485
20
-55.820374452873878
30
0
10
-9.9670052103286295
20
-55.649070910672691
30
0
10
-10.231288054514312
20
-55.485102558652066
30
0
10
-10.706791909545917
20
-55.190086876763118
30
0
10
-11.195070576939994
20
-54.916642528850701
30
0
10
-11.676524750559039
20
-54.632947291535899
30
0
0
ENDSEC
0
SECTION
2
OBJECTS
0
DICTIONARY
5
C
100
AcDbDictionary
3
ACAD_GROUP
350
D
3
ACAD_MLINESTYLE
350
17
0
DICTIONARY
5
D
100
AcDbDictionary
0
DICTIONARY
5
1A
330
C
100
AcDbDictionary
0
DICTIONARY
5
17
100
AcDbDictionary
0
ENDSEC
0
EOF
