0
SECTION
2
HEADER
9
$INSUNITS
70
4
9
$ACADVER
1
AC1014
9
$HANDSEED
5
FFFF
0
ENDSEC
0
SECTION
2
TABLES
0
TABLE
2
VPORT
5
8
100
AcDbSymbolTable
0
ENDTAB
0
TABLE
2
LTYPE
5
5
100
AcDbSymbolTable
0
LTYPE
5
14
100
AcDbSymbolTableRecord
100
AcDbLinetypeTableRecord
2
BYBLOCK
70
0
0
LTYPE
5
15
100
AcDbSymbolTableRecord
100
AcDbLinetypeTableRecord
2
BYLAYER
70
0
0
ENDTAB
0
TABLE
2
LAYER
5
2
100
AcDbSymbolTable
70
2
0
LAYER
5
50
100
AcDbSymbolTableRecord
100
AcDbLayerTableRecord
2
0
70
0
6
CONTINUOUS
0
ENDTAB
0
TABLE
2
STYLE
5
3
100
AcDbSymbolTable
70
1
0
STYLE
5
11
100
AcDbSymbolTableRecord
100
AcDbTextStyleTableRecord
2
STANDARD
70
0
0
ENDTAB
0
TABLE
2
VIEW
5
6
100
AcDbSymbolTable
70
0
0
ENDTAB
0
TABLE
2
UCS
5
7
100
AcDbSymbolTable
70
0
0
ENDTAB
0
TABLE
2
APPID
5
9
100
AcDbSymbolTable
70
2
0
APPID
5
12
100
AcDbSymbolTableRecord
100
AcDbRegAppTableRecord
2
ACAD
70
0
0
ENDTAB
0
TABLE
2
DIMSTYLE
5
A
100
AcDbSymbolTable
70
1
0
ENDTAB
0
TABLE
2
BLOCK_RECORD
5
1
100
AcDbSymbolTable
70
1
0
BLOCK_RECORD
5
1F
100
AcDbSymbolTableRecord
100
AcDbBlockTableRecord
2
*MODEL_SPACE
0
BLOCK_RECORD
5
1B
100
AcDbSymbolTableRecord
100
AcDbBlockTableRecord
2
*PAPER_SPACE
0
ENDTAB
0
ENDSEC
0
SECTION
2
BLOCKS
0
BLOCK
5
20
100
AcDbEntity
100
AcDbBlockBegin
2
*MODEL_SPACE
0
ENDBLK
5
21
100
AcDbEntity
100
AcDbBlockEnd
0
BLOCK
5
1C
100
AcDbEntity
100
AcDbBlockBegin
2
*PAPER_SPACE
0
ENDBLK
5
1D
100
AcDbEntity
100
AcDbBlockEnd
0
ENDSEC
0
SECTION
2
ENTITIES
0
SPLINE
5
100
100
AcDbEntity
8
0
100
AcDbSpline
70
1064
71
3
72
62
73
58
74
0
42
0.000000001
43
0.0000000001
44
0.0000000001
40
-4.9866490088892652
40
-4.9866490088892652
40
-4.9866490088892652
40
-4.9866490088892652
40
-4.8897476022844844
40
-4.8897476022844844
40
-4.8897476022844844
40
-4.7941751791283824
40
-4.7941751791283824
40
-4.7941751791283824
40
-4.6037930101467639
40
-4.6037930101467639
40
-4.6037930101467639
40
-4.3713300353888975
40
-4.3713300353888975
40
-4.3713300353888975
40
-4.3578273877483511
40
-4.3578273877483511
40
-4.3578273877483511
40
-3.9805737467433771
40
-3.9805737467433771
40
-3.9805737467433771
40
-3.4391629920616436
40
-3.4391629920616436
40
-3.4391629920616436
40
-3.1708232653858004
40
-3.1708232653858004
40
-3.1708232653858004
40
-3.0398836230921158
40
-3.0398836230921158
40
-3.0398836230921158
40
-2.8784648810331808
40
-2.8784648810331808
40
-2.8784648810331808
40
-2.7468989604223353
40
-2.7468989604223353
40
-2.7468989604223353
40
-2.6256365580442949
40
-2.6256365580442949
40
-2.6256365580442949
40
-2.5206071645426396
40
-2.5206071645426396
40
-2.5206071645426396
40
-2.2401812036437247
40
-2.2401812036437247
40
-2.2401812036437247
40
-1.7126811834102673
40
-1.7126811834102673
40
-1.7126811834102673
40
-1.2551257139820728
40
-1.2551257139820728
40
-1.2551257139820728
40
-0.9569004544765789
40
-0.9569004544765789
40
-0.9569004544765789
40
-0.58480891899581555
40
-0.58480891899581555
40
-0.58480891899581555
40
-0
40
-0
40
-0
40
-0
10
-15.441732882185928
20
44.049261156017224
30
-1.3877787807814457e-16
10
-15.550726968411597
20
43.977438767332366
30
-1.646523976195803e-16
10
-15.656270776505188
20
43.887337849546697
30
-5.5625920536428453e-11
10
-15.764731335409399
20
43.767872277568799
30
-5.5625920536428453e-11
10
-15.871637754374593
20
43.650118537233865
30
-5.5625920536428453e-11
10
-15.979019784342185
20
43.504838669741588
30
-1.6002507490311592e-10
10
-16.081609657770407
20
43.335416231840178
30
-1.6002504876766466e-10
10
-16.286671458956743
20
42.996766137864277
30
-1.6002499670532558e-10
10
-16.468872939124552
20
42.564764473466624
30
6.8886329980634098e-14
10
-16.63104263715427
20
42.067325631337596
30
6.8833827526759706e-14
10
-16.829355100352107
20
41.459022580450707
30
6.8769720280398267e-14
10
-16.993523322080812
20
40.763448288734921
30
-6.5054769230458869e-12
10
-17.476200052104268
20
38.997871106508207
30
-7.2272827697459756e-12
10
-17.504236404201144
20
38.895317284340919
30
-7.2692089733619684e-12
10
-17.533342768173377
20
38.78921341052429
30
-7.2913897142257156e-12
10
-17.563591325569103
20
38.679364664460337
30
-7.2913897142257156e-12
10
-18.40790915758507
20
35.613193477747856
30
-7.2913897142257156e-12
10
-18.829940468663079
20
34.379841943367296
30
-9.6715318103323558e-16
10
-19.77936585921244
20
31.628175029099026
30
-5.5511151231257817e-16
10
-21.141895518311507
20
27.679230941472763
30
3.6224836961863007e-17
10
-22.252628778527498
20
24.457152032102254
30
1.1102230246251565e-15
10
-22.701811105977093
20
20.243175120353399
30
1.1102230246251565e-15
10
-22.924518307860581
20
18.153860938858845
30
1.1102230246251565e-15
10
-22.9918212633963
20
15.734436439846514
30
-8.3266726846886741e-16
10
-23.00019893699027
20
10.718800277177913
30
-8.3266726846886741e-16
10
-23.004291376244538
20
8.2686945184575968
30
-8.3266726846886741e-16
10
-22.997240565635479
20
6.3933543197866456
30
-2.0666801603397289e-12
10
-22.970751876228768
20
5.2380737619032818
30
-2.0666801603397289e-12
10
-22.937647510004339
20
3.7942563614683755
30
-2.0666801603397289e-12
10
-22.871748037757872
20
2.3662666885696888
30
-4.163336342344337e-16
10
-22.816146029566863
20
1.0460352362504974
30
-4.163336342344337e-16
10
-22.770827070305057
20
-0.030032289912917398
30
-4.163336342344337e-16
10
-22.723744692519343
20
-1.2348261987581444
30
-3.3306690738754696e-15
10
-22.712189284493288
20
-2.3616715804336463
30
-3.3306690738754696e-15
10
-22.701552922618717
20
-3.3988946044212254
30
-3.3306690738754696e-15
10
-22.726466092803761
20
-4.0238531687021943
30
1.14784090122e-15
10
-22.771191854095587
20
-4.6147793872269913
30
1.1102230246251565e-15
10
-22.810412636034272
20
-5.1329726541316925
30
1.0776409325166796e-15
10
-22.86895307740966
20
-5.7014847584788866
30
-5.6805391430246091e-12
10
-22.914872147700301
20
-6.4729066071958226
30
-5.6804561054946134e-12
10
-23.038146606939627
20
-8.5438677709144883
30
-5.6802343972816717e-12
10
-23.005767944677544
20
-10.680642219076349
30
3.8857805861880479e-15
10
-22.998821908124064
20
-12.87310921086779
30
3.8857805861880479e-15
10
-22.985944269786618
20
-16.937844080853612
30
3.8857805861880479e-15
10
-22.895085382278143
20
-19.789455900784006
30
2.7074584990000331e-15
10
-22.341405556485242
20
-23.094459817289909
30
2.2204460492503127e-15
10
-21.864055669710464
20
-25.94383805330385
30
1.7980096482735178e-15
10
-20.753101518212201
20
-30.530904943929595
30
5.3041579570016795e-15
10
-19.58963926794361
20
-34.615475940076372
30
8.0390036593522876e-15
10
-18.831318463812892
20
-37.277715442571619
30
9.8215199306805443e-15
10
-18.043695784347385
20
-39.75065715586215
30
1.127637414974456e-14
10
-17.418611903924877
20
-41.381253529755497
30
1.1102230246251565e-14
10
-16.632299333284138
20
-43.432431726139185
30
1.088495330414154e-14
10
-15.836991603260259
20
-44.964557271840405
30
8.8980476866153626e-16
10
-14.767210088607911
20
-46.329031011920343
30
1.1102230246251565e-15
10
-13.087127362564337
20
-48.471925359457643
30
1.4566500451443904e-15
10
-11.021123833498468
20
-49.796059970664928
30
6.8083552003542799e-15
10
-9.3920219110190182
20
-50.755955940004746
30
6.6613381477509392e-15
0
SPLINE
5
101
100
AcDbEntity
8
0
100
AcDbSpline
70
1064
71
3
72
29
73
25
74
0
42
0.000000001
43
0.0000000001
44
0.0000000001
40
-1.8664083089193499
40
-1.8664083089193499
40
-1.8664083089193499
40
-1.8664083089193499
40
-1.6782797086508474
40
-1.6782797086508474
40
-1.6782797086508474
40
-1.6298934865398966
40
-1.6298934865398966
40
-1.6298934865398966
40
-1.4189584879121704
40
-1.4189584879121704
40
-1.4189584879121704
40
-1.2462509485744007
40
-1.2462509485744007
40
-1.2462509485744007
40
-1.0716599751138631
40
-1.0716599751138631
40
-1.0716599751138631
40
-0.78050302012409589
40
-0.78050302012409589
40
-0.78050302012409589
40
-0.24632369469972151
40
-0.24632369469972151
40
-0.24632369469972151
40
-0
40
-0
40
-0
40
-0
10
-9.3920219110190182
20
-50.755957895613136
30
5.8286708792820718e-15
10
-8.6616002431097385
20
-51.186356383717893
30
5.7469579042097296e-15
10
-8.1705170284215747
20
-51.453980347180483
30
-2.9851398457999841e-15
10
-7.4804749300104723
20
-51.901313358516759
30
-6.554546485413938e-15
10
-7.302997767091207
20
-52.016366329799098
30
-7.4725892615902674e-15
10
-7.1144993165222248
20
-52.141992349467316
30
-8.0491169285323849e-15
10
-6.9081390669260054
20
-52.283322247204168
30
-8.0491169285323849e-15
10
-6.0106861295940721
20
-52.897960638584991
30
-8.0491169285323849e-15
10
-5.0885478909302169
20
-53.58361951476968
30
-3.9062004622928536e-15
10
-4.1032105101533292
20
-54.170530821565848
30
-3.903127820947816e-15
10
-3.2964517803453743
20
-54.65107264370544
30
-3.9006120301619276e-15
10
-2.3480335219694815
20
-55.11950057832972
30
3.3866233168505788e-10
10
-1.4330875053544365
20
-55.372780750918537
30
3.3866233168505788e-10
10
-0.50775425286348896
20
-55.628936372820831
30
3.3866233168505788e-10
10
0.052531007372372852
20
-55.608983612017305
30
-1.474514954580286e-15
10
0.52109115946346796
20
-55.554863795617862
30
-1.474514954580286e-15
10
1.2998777226882714
20
-55.464912087970568
30
-1.474514954580286e-15
10
2.1713815862559778
20
-55.170788496053838
30
1.1654739673350178e-13
10
3.0185998616035468
20
-54.75918471816675
30
1.1654739673350178e-13
10
4.5731476541602598
20
-54.003939272050907
30
1.1654739673350178e-13
10
5.9069708276986033
20
-52.921615382056359
30
1.5590505833726755e-13
10
7.4408986062109417
20
-51.927646596204042
30
1.5577816814271728e-13
10
8.1453125214357964
20
-51.471193917100351
30
1.5571965584159451e-13
10
8.7062734738216783
20
-51.160032834188023
30
4.4408920985006262e-15
10
9.3920219110309979
20
-50.755957895611779
30
4.4408920985006262e-15
0
SPLINE
5
102
100
AcDbEntity
8
0
100
AcDbSpline
70
1064
71
3
72
68
73
64
74
0
42
0.000000001
43
0.0000000001
44
0.0000000001
40
-12.792306946617209
40
-12.792306946617209
40
-12.792306946617209
40
-12.792306946617209
40
-11.639500656627751
40
-11.639500656627751
40
-11.639500656627751
40
-10.707208794782478
40
-10.707208794782478
40
-10.707208794782478
40
-10.64405346170015
40
-10.64405346170015
40
-10.64405346170015
40
-9.3895599186170511
40
-9.3895599186170511
40
-9.3895599186170511
40
-8.1766452202473232
40
-8.1766452202473232
40
-8.1766452202473232
40
-7.6715929007062309
40
-7.6715929007062309
40
-7.6715929007062309
40
-7.2789121374464596
40
-7.2789121374464596
40
-7.2789121374464596
40
-7.0442787316799942
40
-7.0442787316799942
40
-7.0442787316799942
40
-6.700292489594621
40
-6.700292489594621
40
-6.700292489594621
40
-6.3016775478749958
40
-6.3016775478749958
40
-6.3016775478749958
40
-5.4776153610204101
40
-5.4776153610204101
40
-5.4776153610204101
40
-4.8884565199034178
40
-4.8884565199034178
40
-4.8884565199034178
40
-3.42384531698095
40
-3.42384531698095
40
-3.42384531698095
40
-3.3393770248121339
40
-3.3393770248121339
40
-3.3393770248121339
40
-2.4241573450586849
40
-2.4241573450586849
40
-2.4241573450586849
40
-1.2797860855115548
40
-1.2797860855115548
40
-1.2797860855115548
40
-0.8547198317389314
40
-0.8547198317389314
40
-0.8547198317389314
40
-0.54701690820558169
40
-0.54701690820558169
40
-0.54701690820558169
40
-0.3262600576419602
40
-0.3262600576419602
40
-0.3262600576419602
40
-0.13268799836206052
40
-0.13268799836206052
40
-0.13268799836206052
40
-0
40
-0
40
-0
40
-0
10
9.3920219110277703
20
-50.75595789561369
30
4.4408920985006262e-15
10
11.051525810179648
20
-49.778053174377952
30
4.5906493636444883e-15
10
13.206174195705028
20
-48.396499127973996
30
9.4881607951049025e-15
10
14.912753314712317
20
-46.139537297333312
30
9.1246454836380053e-15
10
16.293443736464596
20
-44.313565359015705
30
8.8306651597278734e-15
10
17.232458011910655
20
-42.109618467774496
30
1.7158392302037147e-11
10
18.223597869122997
20
-39.097531562205305
30
1.9334260585238917e-11
10
18.29073968422961
20
-38.893486713612916
30
1.9481658295969644e-11
10
18.35808851424736
20
-38.68592106157967
30
1.9560342010192696e-11
10
18.425799628986056
20
-38.474766246992949
30
1.9560325581480242e-11
10
19.770389917128785
20
-34.281707041224998
30
1.9559999247777507e-11
10
21.159989711609416
20
-28.947305047230518
30
-3.8857805861880479e-15
10
21.915821570340501
20
-25.32675079164725
30
-3.8857805861880479e-15
10
22.646559553586609
20
-21.826400172132907
30
-3.8857805861880479e-15
10
22.907781783296723
20
-19.437940337811405
30
1.5154544286133387e-13
10
22.977673136929944
20
-15.118613833328354
30
1.5154544286133387e-13
10
23.006773791233407
20
-13.320176388686056
30
1.5154544286133387e-13
10
23.016606538339399
20
-10.081275980771716
30
4.0145682204289691e-16
10
22.98216448505563
20
-8.315015056879373
30
5.5511151231257817e-16
10
22.955213451934608
20
-6.9329094005187173
30
6.7457882038942575e-16
10
22.911442477326489
20
-6.3098246240337543
30
1.3989226443911207e-11
10
22.830388499409175
20
-5.3521058544612199
30
1.3989226443911207e-11
10
22.782023644178715
20
-4.7806356955367644
30
1.3989226443911207e-11
10
22.738285585007759
20
-4.3193157475737571
30
-1.9438075849592719e-14
10
22.718809317925128
20
-3.6891950582624187
30
-1.9428902930940239e-14
10
22.690102934887129
20
-2.7604500482049099
30
-1.9415454897801421e-14
10
22.716881864878047
20
-1.6151475539768003
30
-2.7223762057087666e-13
10
22.751249416567365
20
-0.58095996284981277
30
-2.7225617593717999e-13
10
22.791086494397454
20
0.61781648567594605
30
-2.7227767809439634e-13
10
22.848689789199309
20
1.8041021651256588
30
1.026597891800432e-15
10
22.897446628377594
20
3.0367220947438422
30
1.1102230246251565e-15
10
22.997564460507974
20
5.5677974735805975
30
1.2831024192967662e-15
10
22.999730290445676
20
7.5656200097340198
30
7.1140948999368567e-15
10
22.998534211709696
20
9.8249773795938626
30
6.9388939039072284e-15
10
22.997680025089974
20
11.438510649989253
30
6.8136348913837316e-15
10
22.993048078676171
20
12.981705436506248
30
-1.3877787807814457e-14
10
22.973457402953677
20
14.473694499878572
30
-1.3877787807814457e-14
10
22.924782123815351
20
18.180712326097833
30
-1.3877787807814457e-14
10
22.794085469225166
20
20.6983101038341
30
-2.0005329877528477e-15
10
22.124638896246829
20
23.798246194898912
30
-9.0946508151076237e-16
10
22.086030009052109
20
23.977028322826264
30
-8.4654009329779607e-16
10
22.045575808336718
20
24.157841320846721
30
-8.1949165442234135e-16
10
22.003168735136352
20
24.341028948758336
30
-8.326672684688675e-16
10
21.54368718930472
20
26.325870818234975
30
-9.7542594108553068e-16
10
20.942729836588612
20
28.206772120892264
30
-4.3952275603432932e-13
10
20.331503230985213
20
30.009200876149613
30
-4.3964831775156199e-13
10
19.567079510346922
20
32.263388247327782
30
-4.398053174574022e-13
10
19.090767061857747
20
33.500948565753149
30
-2.065380257001201e-13
10
18.436806446748079
20
35.639824720402295
30
-8.0304060038261013e-14
10
18.193898748341258
20
36.434290735478633
30
-3.3415606282455566e-14
10
17.928164923542379
20
37.347910643561981
30
-1.2943605299488403e-15
10
17.615230848153935
20
38.478825411330249
30
-1.3877787807814457e-15
10
17.388480017714645
20
39.298281913244253
30
-1.4554036948682287e-15
10
17.169533629591758
20
40.11595232095339
30
-3.4694469519536142e-16
10
16.953673121466032
20
40.93048413199174
30
-3.4694469519536142e-16
10
16.802837301286853
20
41.499650649974924
30
-3.4694469519536142e-16
10
16.650861315827733
20
42.03998187756217
30
1.7509160499541579e-15
10
16.473897689244641
20
42.502604211556452
30
1.8041124150158794e-15
10
16.318248231685082
20
42.909506560539093
30
1.8507579886635932e-15
10
16.117940683402846
20
43.312361465595295
30
-1.0148132334464322e-15
10
15.894506484844445
20
43.606589926298433
30
-1.0148132334464322e-15
10
15.74180065418073
20
43.807680009134742
30
-1.0148132334464322e-15
10
15.591953814382487
20
43.947872735795251
30
7.4493972880368887e-16
10
15.437688961540134
20
44.049517164494816
30
7.6327832942979512e-16
0
SPLINE
5
103
100
AcDbEntity
8
0
100
AcDbSpline
70
1064
71
3
72
53
73
49
74
0
42
0.000000001
43
0.0000000001
44
0.0000000001
40
-2.5092190725555858
40
-2.5092190725555858
40
-2.5092190725555858
40
-2.5092190725555858
40
-2.2900013354717075
40
-2.2900013354717075
40
-2.2900013354717075
40
-2.2247837403329616
40
-2.2247837403329616
40
-2.2247837403329616
40
-1.9721338956190941
40
-1.9721338956190941
40
-1.9721338956190941
40
-1.6765880909422588
40
-1.6765880909422588
40
-1.6765880909422588
40
-1.587348268057946
40
-1.587348268057946
40
-1.587348268057946
40
-1.3363904695279605
40
-1.3363904695279605
40
-1.3363904695279605
40
-1.2217944145988711
40
-1.2217944145988711
40
-1.2217944145988711
40
-1.1517103023622657
40
-1.1517103023622657
40
-1.1517103023622657
40
-1.0937559111433679
40
-1.0937559111433679
40
-1.0937559111433679
40
-1.0260878823787698
40
-1.0260878823787698
40
-1.0260878823787698
40
-0.84937679656997367
40
-0.84937679656997367
40
-0.84937679656997367
40
-0.75079072633956301
40
-0.75079072633956301
40
-0.75079072633956301
40
-0.52720923377633855
40
-0.52720923377633855
40
-0.52720923377633855
40
-0.50964972593814917
40
-0.50964972593814917
40
-0.50964972593814917
40
-0.13570930949299148
40
-0.13570930949299148
40
-0.13570930949299148
40
-0
40
-0
40
-0
40
-0
10
15.437688961540134
20
44.049517164494823
30
-2.7755575615628914e-16
10
15.216699437959235
20
44.19513031522218
30
-2.7755575615628914e-16
10
14.739998187454677
20
44.379068026184669
30
-1.332968661233164e-16
10
13.998471756100257
20
44.629621111908328
30
-6.7143214874591928e-17
10
13.777866565899577
20
44.704161018773789
30
-4.7462407557261068e-17
10
13.536646670413827
20
44.78625464863228
30
-3.4694469519536142e-17
10
13.278327587048405
20
44.880447399443753
30
-3.4694469519536142e-17
10
12.279260737504762
20
45.244744351790693
30
-3.4694469519536142e-17
10
11.040668085853865
20
45.792812406040312
30
-1.7929554398058231e-17
10
9.764264150860047
20
46.77662999631653
30
7.7037197775489434e-33
10
8.2706266305403737
20
47.927885351851117
30
2.0973710029675575e-17
10
7.1748502927473972
20
49.300493258350343
30
-1.2427172462702908e-10
10
6.0008731859830364
20
50.873288249445309
30
-1.8191415751249312e-10
10
5.6463917234820036
20
51.348192457921954
30
-1.9931924471020993e-10
10
5.2830875248345945
20
51.844719401949284
30
-2.1064951580966465e-10
10
4.8964812719228537
20
52.368224007968038
30
-2.1064951866156534e-10
10
3.8092530378158065
20
53.840442794037742
30
-2.1064952668160276e-10
10
2.7173187314330898
20
55.259052312655626
30
-4.1355807667287081e-14
10
1.7629109074595783
20
56.164008795988316
30
-4.1355807667287081e-14
10
1.3265782209904244
20
56.577733498984024
30
-4.1355807667287081e-14
10
0.90646618169537096
20
56.892484476458655
30
0
10
0.58229573919368016
20
57.06287496555958
30
0
10
0.38446014382172211
20
57.166861324083989
30
0
10
0.21808337599245547
20
57.22059835251607
30
2.3356333412097954e-13
10
0.10532392799493188
20
57.238680250359465
30
2.3356316880551731e-13
10
0.010922077174645349
20
57.253818357658432
30
2.3356303210182417e-13
10
-0.039288844324127187
20
57.258729870567137
30
1.9049296184512829e-10
10
-0.18407932000723426
20
57.22354425893019
30
1.9049296184512829e-10
10
-0.35163292515374622
20
57.182826966917439
30
1.9049296184512829e-10
10
-0.6094997487001137
20
57.067530216841568
30
1.0842021724855044e-16
10
-0.88630785927672129
20
56.883671566112753
30
1.0842021724855044e-16
10
-1.6091775376693052
20
56.403534465197694
30
1.0842021724855044e-16
10
-2.5950157549798929
20
55.364145975515967
30
1.8058031854299568e-10
10
-3.5810410085409861
20
54.112189525546739
30
3.0991469695445413e-10
10
-4.1311386690902117
20
53.413730422445376
30
3.8206958217243555e-10
10
-4.6916404937777587
20
52.652050588755877
30
4.3827441675858836e-10
10
-5.2560617495658404
20
51.88611954367704
30
4.3827441675858836e-10
10
-6.5361196739129692
20
50.149055083927593
30
4.3827441675858836e-10
10
-7.5231640019014705
20
48.799311314255874
30
6.1505250974382651e-11
10
-8.7915311788902901
20
47.609289286357978
30
6.6337765360851512e-12
10
-8.8911454319785186
20
47.515828057134883
30
2.3243139126534299e-12
10
-8.9923307706818036
20
47.423620382230666
30
3.5561831257524545e-16
10
-9.0952434960376767
20
47.332680109299659
30
3.5561831257524545e-16
10
-11.286694940092065
20
45.396173309502132
30
3.5561831257524545e-16
10
-13.466095581744636
20
44.827330461675487
30
-2.1575623232461538e-16
10
-14.595467828320141
20
44.426865467692679
30
-2.1575623232461538e-16
10
-15.005801081050974
20
44.281365076582432
30
-2.1575623232461538e-16
10
-15.284344772656722
20
44.152970170158518
30
-1.3877787807814457e-16
10
-15.441732882185965
20
44.049261156017188
30
-1.3877787807814457e-16
0
SPLINE
5
104
100
AcDbEntity
8
0
100
AcDbSpline
70
1064
71
3
72
83
73
79
74
0
42
0.000000001
43
0.0000000001
44
0.0000000001
40
-4.9866490088892652
40
-4.9866490088892652
40
-4.9866490088892652
40
-4.9866490088892652
40
-4.8897476022844844
40
-4.8897476022844844
40
-4.8897476022844844
40
-4.7941751791283824
40
-4.7941751791283824
40
-4.7941751791283824
40
-4.6037930101467639
40
-4.6037930101467639
40
-4.6037930101467639
40
-4.4553521118219184
40
-4.4553521118219184
40
-4.4553521118219184
40
-4.3578273877483511
40
-4.3578273877483511
40
-4.3578273877483511
40
-4.0001474811276294
40
-4.0001474811276294
40
-4.0001474811276294
40
-3.9805737467433771
40
-3.9805737467433771
40
-3.9805737467433771
40
-3.5763930526091476
40
-3.5763930526091476
40
-3.5763930526091476
40
-3.4391629920616436
40
-3.4391629920616436
40
-3.4391629920616436
40
-3.2390817624341546
40
-3.2390817624341546
40
-3.2390817624341546
40
-3.1708232653858004
40
-3.1708232653858004
40
-3.1708232653858004
40
-3.0398836230921158
40
-3.0398836230921158
40
-3.0398836230921158
40
-2.8784648810331808
40
-2.8784648810331808
40
-2.8784648810331808
40
-2.7468989604223353
40
-2.7468989604223353
40
-2.7468989604223353
40
-2.6371099929141897
40
-2.6371099929141897
40
-2.6371099929141897
40
-2.6256365580442949
40
-2.6256365580442949
40
-2.6256365580442949
40
-2.5206071645426396
40
-2.5206071645426396
40
-2.5206071645426396
40
-2.2401812036437247
40
-2.2401812036437247
40
-2.2401812036437247
40
-1.8205803342696711
40
-1.8205803342696711
40
-1.8205803342696711
40
-1.7126811834102673
40
-1.7126811834102673
40
-1.7126811834102673
40
-1.3969421814563361
40
-1.3969421814563361
40
-1.3969421814563361
40
-1.0792287937840355
40
-1.0792287937840355
40
-1.0792287937840355
40
-0.9569004544765789
40
-0.9569004544765789
40
-0.9569004544765789
40
-0.60808034602545735
40
-0.60808034602545735
40
-0.60808034602545735
40
-0.58480891899581555
40
-0.58480891899581555
40
-0.58480891899581555
40
-0
40
-0
40
-0
40
-0
10
-20.116559263990908
20
51.1470701911459
30
-1.3877787807814457e-16
10
-20.87129663699903
20
50.649753991614759
30
-1.646523976195803e-16
10
-21.516171633057333
20
50.076125665900655
30
-5.5625920536428453e-11
10
-22.055871740297803
20
49.481690051100031
30
-5.5625920536428453e-11
10
-22.585786703128342
20
48.898031974148999
30
-5.5625920536428453e-11
10
-23.00808558776929
20
48.30374405120839
30
-1.6002507490311592e-10
10
-23.350409512990041
20
47.738439110513042
30
-1.6002504876766466e-10
10
-24.027571925841997
20
46.620190488563708
30
-1.6002499670532558e-10
10
-24.42976702889036
20
45.56299439395265
30
6.8886329980634098e-14
10
-24.710395300860384
20
44.70225837413448
30
6.8833827526759706e-14
10
-24.929957021404341
20
44.028824154129644
30
6.8792891385213143e-14
10
-25.081682448236823
20
43.448368034269393
30
-2.6119055149240921e-12
10
-25.272896389226549
20
42.729075986615179
30
-4.7376788517431182e-12
10
-25.399016670919767
20
42.254647630605731
30
-6.134298384875667e-12
10
-25.548311800072664
20
41.692725325178863
30
-7.2913897142257156e-12
10
-25.756615294384254
20
40.936326569396059
30
-7.2913897142257156e-12
10
-26.523678228348473
20
38.15094147168022
30
-7.2913897142257156e-12
10
-26.827115019979864
20
37.259309681085213
30
-7.3786550309278751e-13
10
-27.669810149511179
20
34.815212028632935
30
-5.745757911916268e-14
10
-27.715890235583849
20
34.681564370959101
30
-2.0222823321368766e-14
10
-27.763482459171701
20
34.543628974199677
30
-5.7649021698802472e-16
10
-27.812702667652822
20
34.400986642583497
30
-5.5511151231257817e-16
10
-28.828058401622055
20
31.458441013814173
30
-1.1365974200734288e-16
10
-29.873253033172716
20
28.473510217944551
30
5.9678463077150612e-16
10
-30.575583783182676
20
24.934664078960033
30
9.2857240493586381e-16
10
-30.814204680629462
20
23.732320821743098
30
1.0412231500067686e-15
10
-31.01082251604651
20
22.472473083003038
30
1.1102230246251565e-15
10
-31.152396103333473
20
21.1445777213901
30
1.1102230246251565e-15
10
-31.358628907392905
20
19.210208541580776
30
1.1102230246251565e-15
10
-31.44437823935608
20
17.169887047981412
30
3.0055719332128512e-17
10
-31.478961292091007
20
14.181959507872428
30
-5.1947600847752295e-16
10
-31.490759249425405
20
13.16263244306176
30
-7.0695091499678274e-16
10
-31.496687518906331
20
12.026976462814414
30
-8.3266726846886741e-16
10
-31.498875668985661
20
10.733467445478093
30
-8.3266726846886741e-16
10
-31.503057872570331
20
8.2611881899531685
30
-8.3266726846886741e-16
10
-31.497709253622666
20
6.3699696884858668
30
-2.0666801603397289e-12
10
-31.467328428107528
20
5.0437027715613887
30
-2.0666801603397289e-12
10
-31.431302791873243
20
3.4710131329968839
30
-2.0666801603397289e-12
10
-31.361993231721602
20
1.9829084185413892
30
-4.163336342344337e-16
10
-31.307520622655556
20
0.68883728359808294
30
-4.163336342344337e-16
10
-31.263138846199201
20
-0.36551235770590995
30
-4.163336342344337e-16
10
-31.220422381172071
20
-1.499482067578906
30
-3.3306690738754696e-15
10
-31.210712123424532
20
-2.4483681521229843
30
-3.3306690738754696e-15
10
-31.20251274917284
20
-3.2496107485279051
30
-3.3306690738754696e-15
10
-31.214157278600354
20
-3.5154694068604786
30
3.4045118705530641e-16
10
-31.238017748322623
20
-3.8631399509374846
30
1.0072304529849102e-15
10
-31.240429356487919
20
-3.8982794571034458
30
1.0769118486103131e-15
10
-31.243056648013855
20
-3.9345676931811862
30
1.1137822997886911e-15
10
-31.245951622302698
20
-3.9728058691985018
30
1.1102230246251565e-15
10
-31.26989283574872
20
-4.2890326271858035
30
1.0776409325166796e-15
10
-31.342421063029683
20
-5.0189200497064235
30
-5.6805391430246091e-12
10
-31.3988979940736
20
-5.9673686706911528
30
-5.6804561054946134e-12
10
-31.547494898415795
20
-8.4628394124766935
30
-5.6802343972816717e-12
10
-31.504632105208458
20
-10.783065865606158
30
3.8857805861880479e-15
10
-31.497971873626433
20
-12.899568725467656
30
3.8857805861880479e-15
10
-31.487510612880492
20
-16.223970889847706
30
3.8857805861880479e-15
10
-31.427864079037487
20
-19.074208750625054
30
3.1402047644247807e-15
10
-31.065444543285018
20
-22.116744275546711
30
2.590070761367386e-15
10
-30.972232654460718
20
-22.899264132000326
30
2.4486053924387487e-15
10
-30.859328190003495
20
-23.690641418858881
30
2.3200635426538135e-15
10
-30.724020396951065
20
-24.498421116232795
30
2.2204460492503127e-15
10
-30.322289210278143
20
-26.896733061728657
30
1.9289411792503805e-15
10
-29.651364544884544
20
-29.828649788188628
30
3.5081403464191815e-15
10
-28.869939204091782
20
-32.863441421619868
30
5.4137107785111418e-15
10
-28.083271113954563
20
-35.918594119654685
30
7.3311971634096503e-15
10
-27.189610077458781
20
-39.036820899801661
30
9.5791493184665116e-15
10
-26.333975826733486
20
-41.642720631973489
30
1.0584081768952408e-14
10
-26.004605799351395
20
-42.645842310906829
30
1.0971008233350905e-14
10
-25.680460332354805
20
-43.57515158832507
30
1.1173661937014915e-14
10
-25.355283160598209
20
-44.423464223194173
30
1.1102230246251565e-14
10
-24.445741047513238
20
-46.796250917621379
30
1.0898542284328912e-14
10
-23.340997541851614
20
-49.060049116823365
30
2.1017957111615645e-15
10
-21.774877894264932
20
-51.157109874511768
30
1.183851011332991e-15
10
-21.67054679060621
20
-51.296810990978933
30
1.1226106109611174e-15
10
-21.564394213105295
20
-51.435544525124548
30
1.0964375797264147e-15
10
-21.456419341824365
20
-51.5732692342023
30
1.1102230246251565e-15
10
-18.739306691415273
20
-55.039015892380299
30
1.4566500451443904e-15
10
-15.541152708845242
20
-56.998506110237699
30
6.8083552003542799e-15
10
-13.707193941277374
20
-58.079160087914907
30
6.6613381477509392e-15
0
SPLINE
5
105
100
AcDbEntity
8
0
100
AcDbSpline
70
1064
71
3
72
41
73
37
74
0
42
0.000000001
43
0.0000000001
44
0.0000000001
40
-1.8664083089193499
40
-1.8664083089193499
40
-1.8664083089193499
40
-1.8664083089193499
40
-1.7141333809601647
40
-1.7141333809601647
40
-1.7141333809601647
40
-1.6298934865398966
40
-1.6298934865398966
40
-1.6298934865398966
40
-1.4189584879121704
40
-1.4189584879121704
40
-1.4189584879121704
40
-1.2462509485744007
40
-1.2462509485744007
40
-1.2462509485744007
40
-1.0938699952995046
40
-1.0938699952995046
40
-1.0938699952995046
40
-1.0716599751138631
40
-1.0716599751138631
40
-1.0716599751138631
40
-0.78050302012409589
40
-0.78050302012409589
40
-0.78050302012409589
40
-0.3474794579450301
40
-0.3474794579450301
40
-0.3474794579450301
40
-0.32144117597547689
40
-0.32144117597547689
40
-0.32144117597547689
40
-0.24632369469972151
40
-0.24632369469972151
40
-0.24632369469972151
40
-0.019717368803013641
40
-0.019717368803013641
40
-0.019717368803013641
40
-0
40
-0
40
-0
40
-0
10
-13.707193941277412
20
-58.079160087914886
30
5.8286708792820718e-15
10
-13.039621111635142
20
-58.472525111436582
30
5.7625308167146965e-15
10
-12.656102031448635
20
-58.688003712578634
30
2.9007500395071608e-17
10
-12.340096293237778
20
-58.884062371940914
30
-4.0468399672457017e-15
10
-12.160374130201424
20
-58.995566949490978
30
-6.3016363736456081e-15
10
-11.978584868673266
20
-59.113086973263648
30
-8.0491169285323849e-15
10
-11.711100932335048
20
-59.296278636594678
30
-8.0491169285323849e-15
10
-11.054346011161398
20
-59.746070231774866
30
-8.0491169285323849e-15
10
-9.9091053155631119
20
-60.605902371685048
30
-3.9062004622928536e-15
10
-8.4530173520733403
20
-61.473213920129794
30
-3.903127820947816e-15
10
-7.2678864894478696
20
-62.179131220009005
30
-3.9006120301619276e-15
10
-5.6876235278060765
20
-63.014693332793485
30
3.3866233168505788e-10
10
-3.7008154968558453
20
-63.564691990464866
30
3.3866233168505788e-10
10
-1.9187775348840321
20
-64.058005119733409
30
3.3866233168505788e-10
10
-0.28189894285702388
20
-64.144768211572256
30
8.0682007365818973e-11
10
0.98639618495746417
20
-64.047741974598665
30
1.5045759430885409e-11
10
1.1673206494667068
20
-64.033901016305265
30
5.479062542496787e-12
10
1.3378273862089518
20
-64.017039368382584
30
-1.474514954580286e-15
10
1.4963774591188559
20
-63.998726456373952
30
-1.474514954580286e-15
10
3.5687476076122349
20
-63.759362755795664
30
-1.474514954580286e-15
10
5.3088357312733798
20
-63.09655729341511
30
1.1654739673350178e-13
10
6.732997323616555
20
-62.40465733234597
30
1.1654739673350178e-13
10
8.8571423907908482
20
-61.372684628416366
30
1.1654739673350178e-13
10
10.42091029161144
20
-60.192141596765147
30
1.4241035466356843e-13
10
11.433627152934827
20
-59.486204743003697
30
1.5213792645992308e-13
10
11.494523162975858
20
-59.443755822306542
30
1.5272285827295875e-13
10
11.553264591422893
20
-59.403096201060812
30
1.5324944813372679e-13
10
11.60974078356027
20
-59.364402388049598
30
1.5370856470127305e-13
10
11.777018669869088
20
-59.249794461969891
30
1.5503306376793073e-13
10
11.929122219559247
20
-59.147852862423804
30
1.5579601172325201e-13
10
12.063212019326166
20
-59.060964107075264
30
1.5577816814271728e-13
10
12.475804385418845
20
-58.793608669014965
30
1.5572433955106127e-13
10
12.855697052565663
20
-58.578200935861766
30
2.7690649875750731e-14
10
13.525919880501501
20
-58.185641716339219
30
7.1936773650837725e-15
10
13.584514332426352
20
-58.151322097016767
30
5.4102039128807137e-15
10
13.644935472059965
20
-58.115845679539817
30
4.4408920985006262e-15
10
13.707193941277538
20
-58.079160087914815
30
4.4408920985006262e-15
0
SPLINE
5
106
100
AcDbEntity
8
0
100
AcDbSpline
70
1064
71
3
72
77
73
73
74
0
42
0.000000001
43
0.0000000001
44
0.0000000001
40
-12.792306946617209
40
-12.792306946617209
40
-12.792306946617209
40
-12.792306946617209
40
-11.639500656627751
40
-11.639500656627751
40
-11.639500656627751
40
-10.935531004857786
40
-10.935531004857786
40
-10.935531004857786
40
-10.64405346170015
40
-10.64405346170015
40
-10.64405346170015
40
-9.3895599186170511
40
-9.3895599186170511
40
-9.3895599186170511
40
-8.2644254807462563
40
-8.2644254807462563
40
-8.2644254807462563
40
-8.1766452202473232
40
-8.1766452202473232
40
-8.1766452202473232
40
-7.6715929007062309
40
-7.6715929007062309
40
-7.6715929007062309
40
-7.2789121374464596
40
-7.2789121374464596
40
-7.2789121374464596
40
-7.0693630622896393
40
-7.0693630622896393
40
-7.0693630622896393
40
-7.0442787316799942
40
-7.0442787316799942
40
-7.0442787316799942
40
-6.7234388499487086
40
-6.7234388499487086
40
-6.7234388499487086
40
-6.700292489594621
40
-6.700292489594621
40
-6.700292489594621
40
-6.3016775478749958
40
-6.3016775478749958
40
-6.3016775478749958
40
-5.4776153610204101
40
-5.4776153610204101
40
-5.4776153610204101
40
-4.8884565199034178
40
-4.8884565199034178
40
-4.8884565199034178
40
-3.7819885279929766
40
-3.7819885279929766
40
-3.7819885279929766
40
-3.3393770248121339
40
-3.3393770248121339
40
-3.3393770248121339
40
-2.4241573450586849
40
-2.4241573450586849
40
-2.4241573450586849
40
-1.535288383209318
40
-1.535288383209318
40
-1.535288383209318
40
-0.8547198317389314
40
-0.8547198317389314
40
-0.8547198317389314
40
-0.54701690820558169
40
-0.54701690820558169
40
-0.54701690820558169
40
-0.3262600576419602
40
-0.3262600576419602
40
-0.3262600576419602
40
-0.13268799836206052
40
-0.13268799836206052
40
-0.13268799836206052
40
-0
40
-0
40
-0
40
-0
10
13.707193941277394
20
-58.0791600879149
30
4.4408920985006262e-15
10
15.574039891135296
20
-56.979127449722078
30
4.5906493636444883e-15
10
18.919463592862932
20
-54.933874400919578
30
9.4881607951049025e-15
10
21.692708321697772
20
-51.266403049895494
30
9.1246454836380053e-15
10
23.386394389049752
20
-49.02659166034973
30
8.9026621812839364e-15
10
24.529660990790539
20
-46.619493399716532
30
9.787007662579933e-12
10
25.451463456665657
20
-44.17115770774646
30
1.5513201731382072e-11
10
25.832881974188226
20
-43.15809839775396
30
1.7884123509930096e-11
10
26.180584972418441
20
-42.129132225269288
30
1.9560401404067332e-11
10
26.520034668944156
20
-41.070647499016829
30
1.9560325581480242e-11
10
27.981920077604812
20
-36.512141798654774
30
1.9559999247777507e-11
10
29.3988245814243
20
-31.078538526723058
30
-3.8857805861880479e-15
10
30.236948610490337
20
-27.064219733948555
30
-3.8857805861880479e-15
10
30.991179134122675
20
-23.451721272980485
30
-3.8857805861880479e-15
10
31.354873959304662
20
-20.35609158677957
30
1.2986199964996869e-13
10
31.457281550653192
20
-16.239524496001899
30
1.4922101146846526e-13
10
31.465256286941337
20
-15.918957079767411
30
1.5073135462678632e-13
10
31.471888518735614
20
-15.59169119976163
30
1.5154544286133387e-13
10
31.477317706479418
20
-15.256605999116879
30
1.5154544286133387e-13
10
31.50853262303545
20
-13.330045881680096
30
1.5154544286133387e-13
10
31.520248523808018
20
-10.14122821741655
30
4.0145682204289691e-16
10
31.481457574396408
20
-8.1497678305548877
30
5.5511151231257817e-16
10
31.451739115409488
20
-6.6240734423347014
30
6.7457882038942575e-16
10
31.387915606195534
20
-5.6618950979467728
30
1.3989226443911207e-11
10
31.301093503246694
20
-4.6357607936696068
30
1.3989226443911207e-11
10
31.255005046284356
20
-4.0910498834982238
30
1.3989226443911207e-11
10
31.232049337677346
20
-3.8401711112668742
30
2.8157442140567679e-12
10
31.219799986548161
20
-3.5400190485581264
30
4.2666790309162479e-13
10
31.218331688625277
20
-3.5040405999385071
30
1.4068057534478411e-13
10
31.216986233362256
20
-3.4667164234455035
30
-1.9429883594897201e-14
10
31.21576138496436
20
-3.427061198733234
30
-1.9428902930940239e-14
10
31.200991865642504
20
-2.948888872586648
30
-1.9416359797425309e-14
10
31.213143335007445
20
-1.9558229893598065
30
-2.3935828874152325e-13
10
31.241327064489766
20
-1.058420437413742
30
-2.6897258040725643e-13
10
31.243371744176024
20
-0.99331547075174209
30
-2.7110904506005234e-13
10
31.245474606655925
20
-0.92837496866662828
30
-2.7225492737214331e-13
10
31.247623981800182
20
-0.86373754949335435
30
-2.7225617593717999e-13
10
31.284587031362854
20
0.24783952205087542
30
-2.7227767809439634e-13
10
31.341271300919992
20
1.4199102699799706
30
1.026597891800432e-15
10
31.391944820047485
20
2.7002942803387042
30
1.1102230246251565e-15
10
31.498947749258747
20
5.4039715062869949
30
1.2831024192967662e-15
10
31.500977107941011
20
7.5616470559645075
30
7.1140948999368567e-15
10
31.499825150489642
20
9.8290056946648932
30
6.9388939039072284e-15
10
31.498998631693759
20
11.455814505751587
30
6.8136348913837316e-15
10
31.494453345120611
20
13.033625473326504
30
-1.3877787807814457e-14
10
31.474118306067076
20
14.584823834614603
30
-1.3877787807814457e-14
10
31.435872761144424
20
17.502272208055384
30
-1.3877787807814457e-14
10
31.344184848684606
20
20.078844889668357
30
-7.0990461841094075e-15
10
30.934353168973736
20
22.849925716979975
30
-3.3133810284893661e-15
10
30.770364071073978
20
23.958739572948218
30
-1.799031804364726e-15
10
30.556788624698914
20
25.086956399868843
30
-7.6362741707932456e-16
10
30.285817094195629
20
26.257597211589861
30
-8.326672684688675e-16
10
29.72587252465695
20
28.676648261661729
30
-9.7542594108553068e-16
10
29.026286739035431
20
30.841541166212778
30
-4.3952275603432932e-13
10
28.383026401206685
20
32.738566310306624
30
-4.3964831775156199e-13
10
27.758610075165421
20
34.580018986965115
30
-4.3977026433522232e-13
10
27.348417264592971
20
35.693932499149369
30
-2.9906465312440991e-13
10
26.93686004447629
20
36.954612253755506
30
-1.7707363904461447e-13
10
26.621136844438592
20
37.921733778762743
30
-8.367039142535564e-14
10
26.284754696418567
20
39.027065683721446
30
-1.2382079242719747e-15
10
25.809338839592783
20
40.745317136840654
30
-1.3877787807814457e-15
10
25.595155233887059
20
41.519421084898553
30
-1.4554036948682287e-15
10
25.384110258470894
20
42.307312300933127
30
-3.4694469519536142e-16
10
25.172047402938063
20
43.107582909902042
30
-3.4694469519536142e-16
10
25.009464146742154
20
43.721130252349802
30
-3.4694469519536142e-16
10
24.786693066136372
20
44.567226810074672
30
1.7509160499541579e-15
10
24.414941885457786
20
45.539129311142837
30
1.8041124150158794e-15
10
24.095037974117986
20
46.375482839234138
30
1.8507579886635932e-15
10
23.586401460403863
20
47.534810795319359
30
-1.0148132334464322e-15
10
22.665995521783231
20
48.746897469244928
30
-1.0148132334464322e-15
10
22.025324642862923
20
49.590599798974836
30
-1.0148132334464322e-15
10
21.186881973072175
20
50.441806557743718
30
7.4493972880368887e-16
10
20.116559263990752
20
51.147070191146014
30
7.6327832942979512e-16
0
SPLINE
5
107
100
AcDbEntity
8
0
100
AcDbSpline
70
1064
71
3
72
62
73
58
74
0
42
0.000000001
43
0.0000000001
44
0.0000000001
40
-2.5092190725555858
40
-2.5092190725555858
40
-2.5092190725555858
40
-2.5092190725555858
40
-2.3439772211888141
40
-2.3439772211888141
40
-2.3439772211888141
40
-2.2247837403329616
40
-2.2247837403329616
40
-2.2247837403329616
40
-2.0034411632464049
40
-2.0034411632464049
40
-2.0034411632464049
40
-1.9721338956190941
40
-1.9721338956190941
40
-1.9721338956190941
40
-1.7455526537085422
40
-1.7455526537085422
40
-1.7455526537085422
40
-1.587348268057946
40
-1.587348268057946
40
-1.587348268057946
40
-1.3685107456161727
40
-1.3685107456161727
40
-1.3685107456161727
40
-1.3363904695279605
40
-1.3363904695279605
40
-1.3363904695279605
40
-1.2217944145988711
40
-1.2217944145988711
40
-1.2217944145988711
40
-1.1517103023622657
40
-1.1517103023622657
40
-1.1517103023622657
40
-1.0937559111433679
40
-1.0937559111433679
40
-1.0937559111433679
40
-1.0260878823787698
40
-1.0260878823787698
40
-1.0260878823787698
40
-0.89273176111471597
40
-0.89273176111471597
40
-0.89273176111471597
40
-0.75079072633956301
40
-0.75079072633956301
40
-0.75079072633956301
40
-0.57298290980998257
40
-0.57298290980998257
40
-0.57298290980998257
40
-0.50964972593814917
40
-0.50964972593814917
40
-0.50964972593814917
40
-0.27217868660216926
40
-0.27217868660216926
40
-0.27217868660216926
40
-0.13570930949299148
40
-0.13570930949299148
40
-0.13570930949299148
40
-0
40
-0
40
-0
40
-0
10
20.116559263990791
20
51.147070191145971
30
-2.7755575615628914e-16
10
18.974680598534682
20
51.899483916157294
30
-2.7755575615628914e-16
10
17.94300639663566
20
52.260704831843377
30
-1.95590215120318e-16
10
17.304251330662733
20
52.483575525142271
30
-1.2689440247307664e-16
10
16.826144601988496
20
52.650393737265858
30
-7.7342228118216273e-17
10
16.458975501866817
20
52.768742694804054
30
-3.4694469519536142e-17
10
16.192296581087295
20
52.865986258334488
30
-3.4694469519536142e-17
10
15.652921794964225
20
53.062667443813083
30
-3.4694469519536142e-17
10
15.459574160446536
20
53.145851409339819
30
-2.1826998110233199e-17
10
15.112967674927289
20
53.391943512958413
30
-6.5819241084511453e-18
10
15.063942755518001
20
53.426751417747298
30
-4.4256213398911445e-18
10
15.01172152300045
20
53.465396742097639
30
-2.2217522382178745e-18
10
14.955426224920913
20
53.508788377478169
30
7.7037197775489434e-33
10
14.57914396003658
20
53.798821531134308
30
1.6079569362157047e-17
10
14.165134921673342
20
54.215804753295238
30
-7.3041652289084293e-11
10
13.492608353255555
20
55.069391432396195
30
-1.3310373595062341e-10
10
13.02485433910565
20
55.663075926547393
30
-1.7504050426580312e-10
10
12.44478960491012
20
56.458102805977987
30
-2.1064951360571491e-10
10
11.736183009720385
20
57.41764562100569
30
-2.1064951866156534e-10
10
10.760821583188511
20
58.738408164336555
30
-2.1064952565511218e-10
10
9.6559142295106746
20
60.241953686154908
30
-5.0503044481198886e-11
10
8.258815524321701
20
61.691258967786055
30
-9.5085088710792972e-12
10
8.0525319229362307
20
61.905250944080549
30
-3.4914612130139797e-12
10
7.8379973976814998
20
62.119222657341382
30
-4.1355807667287081e-14
10
7.6135722263626171
20
62.33202307772082
30
-4.1355807667287081e-14
10
6.8277355702568592
20
63.077155051046844
30
-4.1355807667287081e-14
10
5.847808037604219
20
63.898970406804622
30
0
10
4.5392329437749082
20
64.586797579046845
30
0
10
3.7340076351126421
20
65.010048678419594
30
0
10
2.7037179886255576
20
65.430929807772756
30
2.3356333412097954e-13
10
1.4533749361107016
20
65.631443154353519
30
2.3356316880551731e-13
10
0.38041919938122126
20
65.803509488526316
30
2.3356303210182417e-13
10
-0.89298154491057802
20
65.79812501858882
30
1.9049296184512829e-10
10
-2.1890533626115971
20
65.483177286418197
30
1.9049296184512829e-10
10
-3.65308552734676
20
65.127414894388039
30
1.9049296184512829e-10
10
-4.7698611825259718
20
64.506919694261995
30
1.0842021724855044e-16
10
-5.5870222805586227
20
63.96416307497887
30
1.0842021724855044e-16
10
-7.2054551549671766
20
62.889203489206295
30
1.0842021724855044e-16
10
-8.3531567516954546
20
61.651819905632834
30
1.0284162531639486e-10
10
-9.3312676214264041
20
60.503819530646091
30
2.0889016963198465e-10
10
-10.387381791018894
20
59.26426734874007
30
3.2176567901147745e-10
10
-11.292055601067855
20
58.02059221909866
30
4.3827441675858836e-10
10
-12.096689982749531
20
56.928706065165507
30
4.3827441675858836e-10
10
-13.103163938366663
20
55.562924287190931
30
4.3827441675858836e-10
10
-13.809178038724411
20
54.644002125905679
30
1.9998467355865433e-10
10
-14.270666115275215
20
54.146530529583416
30
7.4816012105552852e-11
10
-14.440880966459694
20
53.963043549010941
30
3.0232314912006046e-11
10
-14.582572453671883
20
53.825146885678343
30
3.5561831257524545e-16
10
-14.721619251749473
20
53.702278285595845
30
3.5561831257524545e-16
10
-15.279924588160497
20
53.208932188800929
30
3.5561831257524545e-16
10
-15.430061093200003
20
53.155815940125279
30
1.2518918280030216e-16
10
-16.030096331375706
20
52.925541448824795
30
-4.3000819805679175e-17
10
-16.329843700485156
20
52.810507916543934
30
-1.3965591069933163e-16
10
-16.787762081784368
20
52.667448626067426
30
-2.1575623232461538e-16
10
-17.434095876717954
20
52.438270649126892
30
-2.1575623232461538e-16
10
-18.062607332587408
20
52.215412143089907
30
-2.1575623232461538e-16
10
-19.039123327027838
20
51.857020916486434
30
-1.3877787807814457e-16
10
-20.116559263990752
20
51.147070191146014
30
-1.3877787807814457e-16
0
ENDSEC
0
SECTION
2
OBJECTS
0
DICTIONARY
5
C
100
AcDbDictionary
3
ACAD_GROUP
350
D
3
ACAD_MLINESTYLE
350
17
0
DICTIONARY
5
D
100
AcDbDictionary
0
DICTIONARY
5
1A
330
C
100
AcDbDictionary
0
DICTIONARY
5
17
100
AcDbDictionary
0
ENDSEC
0
EOF
